<svg version="1.1" id="Layer_1" xmlns="http://www.w3.org/2000/svg"
	xmlns:xlink="http://www.w3.org/1999/xlink" x="0px" y="0px"
	width="100%" viewBox="0 0 284 238" enable-background="new 0 0 284 238" xml:space="preserve">
<path fill="none" opacity="1.000000" stroke="none" 
	d="
M168.000000,239.000000 
	C112.000008,239.000000 56.500011,239.000000 1.000015,239.000000 
	C1.000010,159.666687 1.000010,80.333366 1.000005,1.000036 
	C95.666634,1.000024 190.333267,1.000024 284.999939,1.000012 
	C284.999939,80.333298 284.999939,159.666595 284.999969,238.999939 
	C246.166672,239.000000 207.333328,239.000000 168.000000,239.000000 
M47.329220,106.230782 
	C44.028812,109.516579 40.722740,112.796707 37.429176,116.089348 
	C30.352776,123.163773 30.343424,127.939018 37.448498,135.046829 
	C64.980125,162.589050 92.758484,189.890411 119.943832,217.770096 
	C130.539047,228.635910 149.145401,228.904099 160.010056,217.801483 
	C187.581635,189.626068 215.669662,161.956253 243.522125,134.055298 
	C248.860352,128.707779 248.918472,123.004723 243.683777,117.436195 
	C240.038879,113.558815 236.197891,109.865753 232.701508,105.383438 
	C233.962006,103.673988 235.027924,101.769043 236.515778,100.287994 
	C244.058212,92.780075 251.830582,85.500488 259.287384,77.910034 
	C265.793854,71.286934 265.719818,66.173950 259.446442,59.857140 
	C250.758698,51.109219 242.046600,42.385155 233.299881,33.696205 
	C226.489792,26.931068 221.637238,26.917076 214.957901,33.567757 
	C205.038742,43.444340 195.177536,53.379459 185.215073,63.212067 
	C180.085602,68.274689 176.033493,68.568413 170.213715,64.159843 
	C163.060715,58.741364 156.021545,53.167767 149.041977,47.526608 
	C142.511337,42.248283 137.751984,42.335308 131.453766,47.997456 
	C125.144737,53.669319 118.830040,59.338757 112.387451,64.857040 
	C106.255821,70.108955 101.504082,69.896645 95.859993,64.285950 
	C84.869843,53.360821 73.950256,42.364685 62.954685,31.445049 
	C57.784676,26.310736 51.950615,26.212845 46.788799,31.293081 
	C37.418152,40.515636 28.114393,49.807663 18.881933,59.168552 
	C13.325148,64.802635 13.441239,69.977142 19.074095,75.643875 
	C27.648258,84.269608 36.297970,92.820442 44.840080,101.477600 
	C46.069904,102.723976 46.878864,104.385635 47.329220,106.230782 
z"/>
<path fill="#FFFFFF" opacity="1.000000" stroke="none" 
	d="
M47.882591,105.855118 
	C46.878864,104.385635 46.069904,102.723976 44.840080,101.477600 
	C36.297970,92.820442 27.648258,84.269608 19.074095,75.643875 
	C13.441239,69.977142 13.325148,64.802635 18.881933,59.168552 
	C28.114393,49.807663 37.418152,40.515636 46.788799,31.293081 
	C51.950615,26.212845 57.784676,26.310736 62.954685,31.445049 
	C73.950256,42.364685 84.869843,53.360821 95.859993,64.285950 
	C101.504082,69.896645 106.255821,70.108955 112.387451,64.857040 
	C118.830040,59.338757 125.144737,53.669319 131.453766,47.997456 
	C137.751984,42.335308 142.511337,42.248283 149.041977,47.526608 
	C156.021545,53.167767 163.060715,58.741364 170.213715,64.159843 
	C176.033493,68.568413 180.085602,68.274689 185.215073,63.212067 
	C195.177536,53.379459 205.038742,43.444340 214.957901,33.567757 
	C221.637238,26.917076 226.489792,26.931068 233.299881,33.696205 
	C242.046600,42.385155 250.758698,51.109219 259.446442,59.857140 
	C265.719818,66.173950 265.793854,71.286934 259.287384,77.910034 
	C251.830582,85.500488 244.058212,92.780075 236.515778,100.287994 
	C235.027924,101.769043 233.962006,103.673988 232.334076,105.725929 
	C231.481506,106.022507 230.996353,105.976601 230.395935,105.574730 
	C225.893661,100.499458 221.559662,95.729485 217.107147,91.072807 
	C210.555984,84.221214 205.082596,84.335487 198.461014,91.164757 
	C193.718033,96.056496 188.891861,100.871674 183.988083,105.602089 
	C179.983398,109.465195 174.897064,109.537254 170.561310,106.045776 
	C163.450180,100.319397 156.340210,94.591507 149.211472,88.887070 
	C142.338470,83.387253 137.825867,83.545174 131.124451,89.482582 
	C124.782890,95.101166 118.464310,100.745804 112.106850,106.346329 
	C106.160088,111.585075 101.672661,111.475388 96.041283,105.919167 
	C90.360077,100.313782 84.740181,94.646278 79.089729,89.009697 
	C75.602646,85.531166 70.873268,84.180374 67.365372,87.205147 
	C60.786900,92.877594 55.153915,99.646553 48.815208,105.947784 
	C48.296013,105.909126 48.089302,105.882118 47.882591,105.855118 
z"/>
<path fill="#FFFFFF" opacity="1.000000" stroke="none" 
	d="
M230.511200,105.930687 
	C230.996353,105.976601 231.481506,106.022507 232.205566,106.079391 
	C236.197891,109.865753 240.038879,113.558815 243.683777,117.436195 
	C248.918472,123.004723 248.860352,128.707779 243.522125,134.055298 
	C215.669662,161.956253 187.581635,189.626068 160.010056,217.801483 
	C149.145401,228.904099 130.539047,228.635910 119.943832,217.770096 
	C92.758484,189.890411 64.980125,162.589050 37.448498,135.046829 
	C30.343424,127.939018 30.352776,123.163773 37.429176,116.089348 
	C40.722740,112.796707 44.028812,109.516579 47.605904,106.042953 
	C48.089302,105.882118 48.296013,105.909126 49.096336,106.111496 
	C51.005566,107.560478 52.339695,108.815575 53.634052,110.110428 
	C79.299011,135.785080 104.947639,161.476059 130.628464,187.134827 
	C137.499344,193.999817 142.468048,193.976227 149.341003,187.118362 
	C152.281113,184.184738 155.040573,181.069992 157.982300,178.138062 
	C182.145248,154.055542 206.331802,129.996704 230.511200,105.930687 
z"/>
<path fill="#FFFFFF20" opacity="1.000000" stroke="none" 
	d="
M230.395935,105.574722 
	C206.331802,129.996704 182.145248,154.055542 157.982300,178.138062 
	C155.040573,181.069992 152.281113,184.184738 149.341003,187.118362 
	C142.468048,193.976227 137.499344,193.999817 130.628464,187.134827 
	C104.947639,161.476059 79.299011,135.785080 53.634052,110.110428 
	C52.339695,108.815575 51.005566,107.560478 49.408821,106.123161 
	C55.153915,99.646553 60.786900,92.877594 67.365372,87.205147 
	C70.873268,84.180374 75.602646,85.531166 79.089729,89.009697 
	C84.740181,94.646278 90.360077,100.313782 96.041283,105.919167 
	C101.672661,111.475388 106.160088,111.585075 112.106850,106.346329 
	C118.464310,100.745804 124.782890,95.101166 131.124451,89.482582 
	C137.825867,83.545174 142.338470,83.387253 149.211472,88.887070 
	C156.340210,94.591507 163.450180,100.319397 170.561310,106.045776 
	C174.897064,109.537254 179.983398,109.465195 183.988083,105.602089 
	C188.891861,100.871674 193.718033,96.056496 198.461014,91.164757 
	C205.082596,84.335487 210.555984,84.221214 217.107147,91.072807 
	C221.559662,95.729485 225.893661,100.499458 230.395935,105.574722 
z"/>
</svg>