<?xml version="1.0" encoding="utf-8"?>
<!DOCTYPE svg PUBLIC "-//W3C//DTD SVG 1.0//EN" "http://www.w3.org/TR/2001/REC-SVG-20010904/DTD/svg10.dtd">
<svg version="1.0" xmlns="http://www.w3.org/2000/svg" width="893px" height="867px" viewBox="0 0 893 867" preserveAspectRatio="xMidYMid meet">
 <g fill="#4bb1b5">
  <path d="M 22.4 864.7 c -0.2 -0.7 12 -26.5 27.2 -57.2 15.2 -30.8 34.3 -69.5 42.4 -86 8.1 -16.5 28.6 -57.9 45.5 -92 32.8 -66.1 40.8 -82.6 40.3 -83 -0.2 -0.1 -5 -2.3 -10.8 -4.9 -31.7 -14.2 -58.1 -32.5 -84 -58.5 -22.4 -22.5 -38.1 -43.9 -51.5 -70.1 -11.3 -22.4 -15.5 -33.2 -22.6 -58.5 -2.7 -9.6 -4.5 -19.3 -7.1 -38 -2.6 -19.2 -2 -53 1.3 -75 8.6 -57.6 35.8 -112.1 77.4 -155.4 14.3 -14.8 33.5 -30.2 53.5 -42.7 7.2 -4.5 28.9 -15.9 36 -18.8 28.5 -11.7 50.2 -17.5 81.5 -21.7 10.6 -1.5 22.2 -1.5 366.8 -1.1 153.5 0.1 251.7 0.6 251.7 1.1 0 0.5 -12.2 25.6 -27 55.6 -49.1 99.2 -70.1 141.6 -84.5 171 -7.9 16 -21.3 43.1 -29.8 60.4 -15.6 31.3 -15.6 31.3 -12.4 32.4 7 2.5 36.7 17.9 45.4 23.6 47.8 31.1 83.3 72.4 105.9 123.2 47.7 107.2 24.1 232.7 -59.2 315.1 -46.1 45.5 -103.7 73.2 -167.5 80.3 -11.6 1.3 -53.8 1.5 -315.7 1.5 -247.1 0 -302.4 -0.2 -302.8 -1.3 z "/>
 </g>
 <g fill="#5d5b8b">
  <path d="M 22.4 864.7 c -0.2 -0.7 11.5 -25.6 26.2 -55.2 14.6 -29.7 35.2 -71.3 45.6 -92.5 10.5 -21.2 27.3 -55.1 37.3 -75.5 10 -20.3 23.8 -48.2 30.7 -62 6.8 -13.7 13.4 -27.2 14.5 -30 1.2 -2.7 10.3 -21.6 20.3 -42 10.1 -20.3 24.2 -49.1 31.5 -64 7.3 -14.8 26.1 -53 41.8 -84.7 l 28.6 -57.8 161.3 0 c 99.4 0 165.5 0.4 172.3 1 29.9 2.7 60.7 10.1 82.9 19.8 12.5 5.5 38.4 18.9 46.3 24.1 47.8 31.1 83.3 72.4 105.9 123.2 47.7 107.2 24.1 232.7 -59.2 315.1 -46.1 45.5 -103.7 73.2 -167.5 80.3 -11.6 1.3 -53.8 1.5 -315.7 1.5 -246.6 0 -302.4 -0.2 -302.8 -1.3 z "/>
 </g>
 <g fill="#474487">
  <path d="M 262.9 565.6 c -0.2 -0.3 -3.6 -0.7 -7.4 -1 -13.5 -1.2 -19.9 -2.1 -29.7 -4.2 -4 -0.8 -8 -1.7 -8.8 -1.9 -0.8 -0.1 -3.5 -0.8 -6 -1.5 -2.5 -0.7 -4.7 -1.2 -5 -1.2 -0.3 0 -1.6 -0.5 -3 -1 -1.4 -0.5 -3.2 -1.1 -4 -1.3 -1.5 -0.4 -20.3 -6.7 -20.8 -7 -0.1 -0.1 8.4 -17.7 18.9 -39.1 10.5 -21.4 24.7 -50.1 31.4 -63.9 6.7 -13.7 25.3 -51.5 41.3 -83.8 l 29.1 -58.8 168.3 0.4 c 184.6 0.3 174.5 0 202.8 6.3 20.3 4.6 46.8 13.3 42.7 14.2 -0.9 0.2 -1.5 0.7 -1.2 1.2 0.6 1 -27.3 57.3 -28.6 57.8 -0.5 0.2 -0.7 0.8 -0.3 1.3 0.3 0.5 0 0.9 -0.6 0.9 -0.6 0 -0.8 0.5 -0.5 1 0.3 0.6 0.1 1 -0.5 1 -0.6 0 -0.8 0.5 -0.5 1 0.3 0.6 0.1 1 -0.5 1 -0.6 0 -0.8 0.4 -0.5 1 0.3 0.6 0.1 1 -0.5 1 -0.6 0 -0.8 0.5 -0.5 1 0.3 0.6 0.1 1 -0.5 1 -0.6 0 -0.9 0.4 -0.5 0.9 0.5 0.9 -26.8 56.9 -28.3 58.1 -0.4 0.3 -0.8 1.2 -1 2 -0.6 3.1 -4.2 10 -5.3 10 -0.5 0 -0.7 0.4 -0.4 1 0.3 0.5 0.1 1 -0.5 1 -0.6 0 -0.8 0.5 -0.5 1 0.3 0.5 0.1 1 -0.5 1 -0.6 0 -0.8 0.5 -0.5 1 0.3 0.6 0.1 1 -0.5 1 -0.6 0 -0.8 0.5 -0.5 1 0.3 0.6 0.1 1 -0.5 1 -0.6 0 -0.9 0.4 -0.6 0.9 0.7 1.1 -32.3 68.1 -33.6 68.1 -0.5 0 -0.6 0.5 -0.3 1 0.3 0.6 0.1 1 -0.5 1 -0.6 0 -0.9 0.4 -0.5 1 0.8 1.3 -10.1 22.6 -12 23.4 -1.8 0.7 -327.9 0.8 -328.6 0.2 z "/>
 </g>
</svg>